<svg height="496pt" viewBox="-16 0 496 496.03329" width="496pt" xmlns="http://www.w3.org/2000/svg"><path d="m175.902344 8h80v40h-80zm0 0" fill="#57a4ff"/><path d="m239.902344 227c11.601562 13.101562 10.402344 33.101562-2.597656 44.699219-5.203126 4.601562-11.703126 7.402343-18.601563 7.902343l-66 66.097657c-9.398437 9.402343-24.601563 9.402343-34 0-9.398437-9.398438-9.398437-24.597657 0-34l65.398437-65.199219c.300782-7.199219 3.101563-14.101562 7.800782-19.5v-91c0-13.199219 10.800781-24 24-24 13.300781 0 24 10.699219 24 24zm0 0" fill="#57a4ff"/><path d="m255.902344 43.898438c-112.699219-22.199219-222.097656 51.203124-244.300782 163.902343-22.199218 112.699219 51.203126 222.097657 163.902344 244.300781 13.300782 2.597657 26.800782 3.898438 40.398438 3.898438 25.601562.101562 50.902344-4.699219 74.699218-13.898438-1-1.601562-1.796874-3.300781-2.597656-5-.800781-1.703124-1.402344-3.203124-2-4.800781-.601562-1.601562-1.300781-3.300781-1.800781-5-.300781-.902343-.601563-1.800781-.800781-2.601562-.199219-.800781-.597656-1.800781-.699219-2.597657-.5-1.800781-.898437-3.5-1.199219-5.300781-.300781-1.699219-.601562-3.402343-.800781-5.101562-.300781-2.097657-.5-4.199219-.601563-6.199219-.097656-1.800781-.199218-3.601562-.199218-5.398438 0-1.800781.101562-3.601562.199218-5.402343l9.203126-9.199219c6-32.5 31.5-58 64-64l9.199218-9.199219c1.800782-.101562 3.597656-.199219 5.398438-.199219 1.800781 0 3.601562.097657 5.402344.199219 2.097656.199219 4.199218.300781 6.199218.597657 1.800782.203124 3.398438.5 5.097656.800781 1.703126.300781 3.5.699219 5.300782 1.199219.902344.203124 1.800781.5 2.601562.703124.800782.199219 1.800782.5 2.597656.796876 1.800782.601562 3.402344 1.101562 5 1.800781 1.601563.699219 3.203126 1.300781 4.800782 2 1.601562.699219 3.402344 1.601562 5 2.601562 9.199218-23.800781 14-49.199219 13.902344-74.699219.097656-99.601562-70.300782-185.101562-167.902344-204.203124zm0 0" fill="#57a4ff"/><path d="m356.703125 304.699219c-44.101563 5.199219-78.898437 40-84.101563 84.101562-18 7.398438-37.296874 11.199219-56.699218 11.199219-83.898438 0-152-68.101562-152-152s68.101562-152 152-152c83.902344 0 152 68.101562 152 152 0 19.5-3.800782 38.699219-11.199219 56.699219zm0 0" fill="#fff"/><g fill="#57a4ff"><path d="m239.902344 227c11.601562 13.101562 10.402344 33.101562-2.597656 44.699219-5.203126 4.601562-11.703126 7.402343-18.601563 7.902343l-66 66.097657c-9.398437 9.402343-24.601563 9.402343-34 0-9.398437-9.398438-9.398437-24.597657 0-34l65.398437-65.199219c.300782-7.199219 3.101563-14.101562 7.800782-19.5v-91c0-13.199219 10.800781-24 24-24 13.300781 0 24 10.699219 24 24zm0 0"/><path d="m231.902344 136v94.199219h-32v-94.199219c0-8.800781 7.199218-16 16-16 8.800781.101562 15.902344 7.199219 16 16zm0 0"/><path d="m215.203125 271.898438-68.199219 68.203124c-6.300781 6.296876-16.402344 6.296876-22.601562 0-6.300782-6.300781-6.300782-16.402343 0-22.601562l67.699218-67.601562zm0 0"/><path d="m239.902344 248c0 13.253906-10.746094 24-24 24s-24-10.746094-24-24 10.746094-24 24-24 24 10.746094 24 24zm0 0"/><path d="m362.503906 312.199219-9.199218 9.199219c-32.5 6-58 31.5-64 64l-9.203126 9.203124c.101563-1.203124.203126-2.402343.300782-3.601562.199218-1.398438.300781-2.898438.601562-4.398438.199219-1.800781.597656-3.402343 1-5.203124.199219-1.097657.5-2.199219.800782-3.398438.199218-1.199219.597656-2.300781 1-3.398438.199218-.800781.5-1.601562.699218-2.300781.199219-.800781.5-1.699219.898438-2.5 1.5-4.101562 3.199218-8 5.300781-11.800781l1.699219-2.898438c7.5-12.601562 18.101562-23.203124 30.699218-30.703124l2.902344-1.699219c3.800782-2 7.800782-3.800781 11.800782-5.300781.796874-.296876 1.597656-.597657 2.5-.898438.699218-.199219 1.5-.5 2.296874-.699219 1.101563-.402343 2.300782-.699219 3.402344-1 1.097656-.300781 2.199219-.601562 3.398438-.800781 1.800781-.398438 3.402344-.699219 5.199218-1 1.5-.199219 3-.398438 4.402344-.601562 1.097656-.097657 2.300782-.199219 3.5-.199219zm0 0"/></g><path d="m239.902344 227v-91c0-13.300781-10.699219-24-24-24-13.199219 0-24 10.800781-24 24v91c-4.800782 5.398438-7.597656 12.300781-7.800782 19.5l-65.398437 65.199219c-9.398437 9.402343-9.398437 24.601562 0 34 9.398437 9.402343 24.601563 9.402343 34 0l66-66.097657c17.398437-1.402343 30.5-16.601562 29.101563-34.101562-.5-6.800781-3.300782-13.300781-7.902344-18.5zm-24.699219 36.898438c-8.101563-1.097657-13.800781-8.597657-12.699219-16.597657 1.097656-8.101562 8.597656-13.800781 16.597656-12.699219 8.101563 1.097657 13.800782 8.597657 12.703126 16.597657-1.101563 7.800781-8.101563 13.402343-15.902344 12.699219-.199219.101562-.398438 0-.699219 0zm-85.101563 70.5c-3.097656-3.097657-3.097656-8.199219 0-11.296876l58.601563-58.601562c2.898437 4.601562 6.800781 8.398438 11.5 11.101562l-58.800781 58.699219c-3.199219 3.199219-8.199219 3.199219-11.300782.097657zm77.800782-198.398438c0-4.398438 3.601562-8 8-8 2.199218 0 4.199218.898438 5.699218 2.5 1.5 1.398438 2.402344 3.398438 2.300782 5.5v81.101562c-5.199219-1.5-10.800782-1.5-16 0zm0 0" fill="#004fac"/><path d="m419.703125 319.398438c8.101563-22.898438 12.300781-47.097657 12.199219-71.398438-.097656-100.699219-69.800782-188.101562-168-210.601562v-29.398438c0-4.398438-3.597656-8-8-8h-80c-4.398438 0-8 3.601562-8 8v29.398438c-116.300782 26.601562-189 142.5-162.398438 258.800781 22.5 98.101562 109.699219 167.699219 210.398438 167.800781 24.300781 0 48.5-4.101562 71.402344-12.199219 28.5 44.597657 87.699218 57.597657 132.296874 29.199219 44.601563-28.5 57.601563-87.699219 29.203126-132.300781-7.5-11.800781-17.402344-21.800781-29.101563-29.300781zm-51.800781 160.601562c-44.199219 0-80-35.800781-80-80 0-1.699219.101562-3.199219.199218-4.898438v-.101562c.203126-3.199219.601563-6.5 1.203126-9.699219 6-32.5 31.5-58 64-64 3.199218-.601562 6.398437-1 9.699218-1.199219h.097656c1.402344-.101562 2.800782-.101562 4.203126-.101562 44.199218-1.601562 81.199218 32.898438 82.796874 77.101562 1.601563 44.199219-32.898437 81.199219-77.097656 82.796876-1.800781.101562-3.402344.101562-5.101562.101562zm-152-432c110.5 0 200 89.5 200 200 0 21.699219-3.5 43.199219-10.398438 63.699219-10-4.199219-20.699218-6.699219-31.5-7.398438 6.5-18.101562 9.898438-37.101562 9.898438-56.300781 0-92.800781-75.199219-168-168-168-92.800782 0-168 75.199219-168 168s75.199218 168 168 168c19.199218 0 38.300781-3.398438 56.300781-9.898438.699219 10.796876 3.101563 21.5 7.398437 31.5-104.699218 35.199219-218.097656-21.203124-253.296874-125.902343-35.203126-104.699219 21.296874-218.097657 126-253.300781 20.5-6.898438 42-10.398438 63.597656-10.398438zm-32-32h64v18.398438c-21.199219-3.199219-42.800782-3.199219-64 0zm172.800781 288.699219c-44.101563 5.199219-78.898437 40-84.101563 84.101562-18 7.398438-37.296874 11.199219-56.699218 11.199219-83.898438 0-152-68.101562-152-152s68.101562-152 152-152c83.902344 0 152 68.101562 152 152 0 19.5-3.800782 38.699219-11.199219 56.699219zm0 0" fill="#004fac"/><path d="m415.902344 421.800781c.601562 18.300781-13.699219 33.5-32 34.199219h-32c-17.199219-.601562-31-14.199219-31.898438-31.398438-.402344-4.402343 2.898438-8.300781 7.398438-8.601562 4.402344-.398438 8.300781 2.898438 8.601562 7.398438.199219 8.800781 7.097656 16.101562 15.898438 16.601562h32c9.402344-.699219 16.5-8.699219 16-18.199219 0-10.800781-8.097656-21.800781-16-21.800781h-56c-4.398438 0-8-3.601562-8-8v-40c0-4.398438 3.601562-8 8-8h80c4.402344 0 8 3.601562 8 8s-3.597656 8-8 8h-72v24h48c18.902344 0 32 19.898438 32 37.800781zm0 0" fill="#004fac"/></svg>